<?xml version="1.0" encoding="utf-8"?>
<!-- Generator: Adobe Illustrator 23.0.4, SVG Export Plug-In . SVG Version: 6.00 Build 0)  -->
<svg version="1.1" id="Ebene_1" xmlns="http://www.w3.org/2000/svg" xmlns:xlink="http://www.w3.org/1999/xlink" x="0px" y="0px"
	 viewBox="0 0 674.9 283.5" style="enable-background:new 0 0 674.9 283.5;" xml:space="preserve">
<style type="text/css">
	.st0{fill:#FFFFFF;}
	.st1{fill:#20376F;}
	.st2{fill-rule:evenodd;clip-rule:evenodd;fill:#FFFFFF;}
	.st3{fill-rule:evenodd;clip-rule:evenodd;fill:#E2001A;}
	.st4{fill-rule:evenodd;clip-rule:evenodd;fill:#00519E;}
</style>
<g>
	<rect class="st0" width="674.9" height="283.5"/>
	<path class="st1" d="M4.1,4.1v275.3h666.7V4.1H4.1z M665.8,274.3H277.6V9.2h388.1V274.3z"/>
	<g>
		<path class="st0" d="M37.6,202.2C37.4,202.2,37.8,202.3,37.6,202.2L37.6,202.2z"/>
		<path class="st0" d="M271.5,150.4c0.5,1.1,0.4,1.9,0.1,2.5c-0.3,0.7-1.1,1-1.7,0.5c-1.2-0.7-2.4-1.7-3.3-2.1
			c1.2,2.3,0.5,6.3-1.9,3.8c-1.9-2.2-3.9-4.5-6.2-6.7c-2.2-2.2-4.6-4.3-7.1-5.9c0,3.1,2.4,6-0.1,7.7c0,0-0.1,0.1-0.1,0.1
			c-0.8,0.2-1.8-0.7-2.5-1.7c-1.5-2.2-3.5-5.7-5.7-9.4c-2.1-3.7-4.4-7.7-6.3-10.8c-3-0.9-6.6-1.8-10.3-2.7c-7.9-1.9-16.1-3.6-23-8.1
			c-6.4-4.1-21.7-8.9-21.7-8.9c-2.9,1.3-0.6,2.7-3,1.8c-2.3-0.9-4.1-2-7.1-2.7c-1.3,0.6-2.4,1.3-3.5,2c-2.6,1.7-2.1,3.9-3.2,6.8
			c-2.7,7.1-5,11.5-7.1,18.8c-3.1,10.9-9,21-15.5,30.2c-2.9,4.1-9.6,11-12.1,19.3c-0.4,1.2-0.9,1.7-2,1.2c-1.4-0.6-2.7-0.8-5.4-2.2
			c-0.5-0.3-3.5-1.6-3.5-1.6c0.2,0.1,0.3,0.7,0.7,0.9c1.3,0.8,5.1,3.1,7.9,4.5c1.1,0.5,1.9,1.7,1.5,2.8c-1.6,4.7-4.5,15.3-5.3,18.9
			c-0.3,1.3-0.3,3.4-0.9,4.5c-1.6,2.9-4.9,5.3-6,8.4c-1.5,4.2-2.6,8.4-5,12.2c-2.5,3.9-4.4,9-7.5,12.5c-7.2,8.1-11.2,16.4-18.3,24.6
			c-0.1,0.1-2.2,1.8-3.1,2.8l-44.7,0.1c0.1-0.1,0.1-0.3,0.2-0.4c2.8-5.3,6-10.5,9.3-15.5c2.1-3.2,5.2-5.4,6.4-9.3
			c2.7,2,4.6,2.7,4.1,2.3c-0.3-0.2-2.7-2.3-3.6-3.5c-0.9-1.2-1.7-2.4-1.7-2.4c-0.1-0.1-0.1-0.1-0.1-0.1c0-0.1-0.2-0.4-1.1-1.6
			l-0.3-0.4l-0.5-0.5l-0.5-0.7c2.1-5.1,6.3-12.1,6.3-18.2c0-5.5,1.2-10.9,1.9-16.2l-5.8-1c-0.3,0-1.2-0.2-1.5-0.3
			c-1.2-0.3-10.3-0.1-10.3-0.1c-0.4-0.1-0.7-1.6-0.8-2.3c-0.2-1.1-0.3-1.5-0.4-1.5c-0.2-1.1-0.6-3.1-0.6-3.7c0-0.6-1,1.2-1.5,3.4
			c-0.3,0-0.4-0.1-0.5-0.1c0,0,0,0,0,0c-0.1,0-0.4-0.1-1.1-0.3c-3.6-0.9-7.3-1.5-11-2.1c-3.1-0.5-12.5-1.9-16.3-0.3l0-32.7
			c3.5-1.5,10.7-4.3,13.6-5.1c16.6-4.5,22.2-4.1,38.9-4.4c3,0,5.5,1.9,7.6,0.1c0.6-0.3,1.3-0.2,1.9,0.2c2.5,1.9,5.4,3.5,5.7,3.7
			c-3.1-2.5-3.5-4.4-4.5-6.3c-0.1-0.2-0.1-0.4-0.1-0.7l3.6-15.8c0.1-2.6,0.4-5.5,0.5-8.4c0-5.7,0.8-11.1,3.1-16.4
			c1.4-3.2,1.9-5.4,2.9-8.8c-5.2-1.8-9.5-3-13.8-4.5c-0.6-0.2-1.1-0.6-1.4-1.1c-1.9-2.8-3.4-5.9-4.9-8.3c-3.4-5.3-5.8-14.3-6.7-20.7
			c-1-7.7-1.3-14.8-4.4-22.3c0-0.3-0.7-0.7-1.4-1.2h0c0,0,0,0,0,0c-0.2-0.1-4.6-1.8-4.8-2.2c0,0-8.2,1.6-10-1.4c0,0-1.6-2.1,2-3
			c0,0-3-0.2-3,2.2c0,2.4,2.7,4.2,10.6,3.2c0,0,3.7,1.1,4.8,2.2c-3.6,7.3-11.2,12.1-19.8,11.6C18.2,58.9,9.5,49.2,10.1,37.7
			C10.8,26.3,20.6,17.6,32,18.3c0.5,0,1,0.1,1.6,0.2c0,0,0.1,0,0.1,0c0.1,0.1,0.1,0.2,0.2,0.4c1,1.7,1.4,1.6,1.5,1.6
			c-0.3,0.2-0.9,0.8-0.6,1.6c0.2,0.8,1.7,1.9,3.5,1.9c1.8,0.1,3.6,1,3.6,1c3.5,1.5,6.3,8.8,6.3,8.8c1.1-0.2-2.6-6.5-3.7-7.8
			c0,0-1.2-1.1-1.2-1.1c-1.9-1.1-3.5-1.4-5.3-1.7c-0.9-0.1-3.3-0.7-2.6-2c0.5-1,2.6-0.8,2.6-0.8l3.5,0.6c0.1,0,0.2,0.1,0.3,0.1
			c0.7,0.2,1.8,0.7,3.1,1.5l3,2.6c0,0-0.3-2.7-5.9-4.6c-2.6-0.9-4.3-0.7-5.1-0.7c-0.9,0-1.9-0.2-2.1-0.8c-0.1-0.4,0.3-0.8,0.7-1.2
			l0.2-0.1c0.7-0.5,6.4-0.1,9.1,1.6c4.7,3,7.4,5.9,8.5,7.2c0.5,1,1,2.1,1.6,3.3c1.3,3.1,3.8,5.7,6,8.3c3.2,3.9,4.8,9.3,7.3,13.9
			c1.3,2.3,2.9,4.8,4.4,7c3.9,6,6.9,11.4,11.2,17.6c0,0-2.3,2.4-2.6,3.5c0,0,3.8-3.8,6-4.4l5.3,0.6c5.8-4.1,13.8-4.5,20.9-4.1
			c1.3,1.7,2.8,3.8,3,3.9c-0.5-0.7-1.3-3.3-1.5-4.1c0,0,0,0.5,0.1,0.5c1.3-3.2,3.7-8.2,4.9-11.1c0-1.2-0.1-2.4-0.4-3.6
			c-0.6-2.3-0.6-4.7-0.9-7.2c-0.9-0.2-1-1.1-1.2-2c-0.4-2.7-0.4-5.4-0.2-8.2c0.1-1.2,0.4-2.3,2-2.3c0.3-2.2,0.6-4.3,0.9-6.4
			c0.2-1.6,0.3-3.3,0.6-4.9c0.5-2.4,1.9-4.3,4.2-5.4c0.7-0.3,1.3-0.9,1.7-1.6c1.4-2.5,3.6-3.5,6.3-3.7c1.1-0.1,2.1-0.1,3.3-0.2
			c-0.1-0.3-0.2-0.5-0.4-0.8c0.7,0.3,1.4,0.6,2.3,1l-1.1-2.2c1.8,1.4,4,1.6,6.1,2.1c2.5,0.7,5,1.6,7.2,3c1.9,1.2,3.4,2.7,4.6,4.5
			c0.8,1.1,1.4,2.2,1.2,3.6c1.6,0.9,2,2.5,2.1,4.2c0.1,1.8-0.1,3.6-0.8,5.3c-1.1,3.1-2.1,6.2-3.1,9.4c-0.8,1.7,0,0-1.1,2.8
			c-1.1,2.8-1.1,3.5-2.9,7.1c-0.3,0.6-0.2,0.5-1,1.8c-0.5,1-1.1,2-1.7,3c-0.2,0.7-0.7,2.2-1.2,3.6c-0.5,1.5-1,2.9-1.3,3.7l0.8,0.6
			c-0.6,1-3.7,4.2-4.5,4.7c-0.9,0.5,2.7-0.2,6-4.3c3.1,1.2,4.5,0.3,7.1,0.1c5-0.3,9,0,13.9,1c2.4,0.5,5.1,1.5,7.5,2.2l1,0.3
			c4,3.3,7.3,4.6,10.6,8.6l12,8.5c1.2,0.7,1.2,0.7,1.7,1.1l0,0.4c-1,0-0.7,0.1-1.6,0.9c0,0,2.3,1.2,5.3,1.5c2.3,0.7,2.8,0.3,5.4,1.2
			c9.1,3,16.9,8.1,23.5,15.2c4.8,5.2,10.9,9.1,15.8,13.8c3.6,3.5,7.7,6.6,12.3,8.7c6.5,3,6.2,6.4,9.8,13
			C273.5,152.2,271.7,150.8,271.5,150.4z"/>
	</g>
	<g>
		<g>
			<path class="st1" d="M300.8,236.1v9.1h7.9v-9.1h6.2v24.2h-6.2v-9.7h-7.9v9.7h-6.2v-24.2H300.8z"/>
			<path class="st1" d="M322.4,260.3h-6.6l9.7-24.2h4.9l9.6,24.2h-6.7l-1.2-3.5h-8.4L322.4,260.3z M330.4,251.9l-2.5-8.3h-0.1
				l-2.5,8.3H330.4z"/>
			<path class="st1" d="M346,236.1l9.4,15.2l0.1-0.1l-0.3-15.1h5.9v24.2h-5.4l-9.2-14.7l-0.1,0l0.2,14.7h-5.9v-24.2H346z"/>
			<path class="st1" d="M370.4,236.1c2.7,0,7.6,0,10.7,4.5c1.7,2.3,2.2,4.9,2.2,7.5c0,6.6-3.3,12.2-12.5,12.2h-8.5v-24.2H370.4z
				 M371.2,254.9c4.6,0,5.9-3.2,5.9-6.6c0-1.4-0.3-3.1-1.2-4.5c-0.7-1.1-2-2.2-4.7-2.2h-2.7v13.3H371.2z"/>
			<path class="st1" d="M391.7,236.1c4.1,0,6,0.4,7.8,2.4c1.1,1.1,1.4,2.6,1.4,4c0,1.9-0.9,3.8-2.8,4.9c3.9,1.4,4,4.6,4,5.6
				c0,1.9-0.8,4.1-2.2,5.3c-2.2,1.9-3.8,2.1-7.9,2.1h-7.7v-24.2H391.7z M392.4,245.3c0.9,0,2.6,0,2.6-1.9c0-1.8-1.7-1.8-2.6-1.8
				h-2.2v3.8H392.4z M393.1,254.9c0.8,0,3.1,0,3.1-2.3c0-2.1-2.1-2.1-3.1-2.1h-2.9v4.4H393.1z"/>
			<path class="st1" d="M407.4,260.3h-6.6l9.7-24.2h4.9l9.6,24.2h-6.7l-1.2-3.5h-8.4L407.4,260.3z M415.5,251.9l-2.5-8.3h-0.1
				l-2.5,8.3H415.5z"/>
			<path class="st1" d="M432,236.1v18.8h7.2v5.4h-13.3v-24.2H432z"/>
			<path class="st1" d="M446.5,236.1v18.8h7.2v5.4h-13.3v-24.2H446.5z"/>
			<path class="st1" d="M471.4,236.1c4.1,0,6,0.4,7.8,2.4c1.1,1.1,1.4,2.6,1.4,4c0,1.9-0.9,3.8-2.8,4.9c3.9,1.4,4,4.6,4,5.6
				c0,1.9-0.8,4.1-2.2,5.3c-2.2,1.9-3.8,2.1-7.9,2.1H464v-24.2H471.4z M472.1,245.3c0.9,0,2.6,0,2.6-1.9c0-1.8-1.7-1.8-2.6-1.8h-2.2
				v3.8H472.1z M472.8,254.9c0.8,0,3.1,0,3.1-2.3c0-2.1-2.1-2.1-3.1-2.1h-2.9v4.4H472.8z"/>
			<path class="st1" d="M488.8,250.7c0,1.6,0.1,4.6,3.1,4.6c3.1,0,3.1-2.7,3.1-4.6v-14.6h6.2v14.6c0,6.4-3.3,10-9.2,10
				c-6.2,0-9.4-3.6-9.4-10v-14.6h6.2V250.7z"/>
			<path class="st1" d="M507.9,236.1l9.4,15.2l0.1-0.1l-0.3-15.1h5.9v24.2h-5.4l-9.2-14.7l-0.1,0l0.2,14.7h-5.9v-24.2H507.9z"/>
			<path class="st1" d="M532.4,236.1c2.7,0,7.6,0,10.7,4.5c1.7,2.3,2.2,4.9,2.2,7.5c0,6.6-3.3,12.2-12.5,12.2h-8.5v-24.2H532.4z
				 M533.2,254.9c4.6,0,5.9-3.2,5.9-6.6c0-1.4-0.3-3.1-1.2-4.5c-0.7-1.1-2-2.2-4.7-2.2h-2.7v13.3H533.2z"/>
			<path class="st1" d="M559.9,236.1v5.4h-7.5v3.8h7.3v5.4h-7.3v4.2h7.5v5.4h-13.4v-24.2H559.9z"/>
			<path class="st1" d="M569.6,240.8c-1.1,0-2.1,0.8-2.1,1.9c0,1.4,0.7,1.7,5,3.7c4.5,2,5.7,4.1,5.7,6.9c0,3.5-2,7.4-8.4,7.4
				c-7,0-8.7-4.6-8.7-7.7v-0.8h6.2c0,2.8,1.7,3.3,2.5,3.3c1.5,0,2.4-1.2,2.4-2.3c0-1.6-1-2-4.7-3.6c-1.7-0.7-5.9-2.4-5.9-6.9
				s4.4-7.1,8.5-7.1c4.7,0,7.9,2.7,8.1,7.5h-6.1C571.7,242.3,571.5,240.8,569.6,240.8z"/>
			<path class="st1" d="M585.4,236.1v18.8h7.2v5.4h-13.3v-24.2H585.4z"/>
			<path class="st1" d="M600.1,236.1v24.2h-6.2v-24.2H600.1z"/>
			<path class="st1" d="M627,247.8c0,8.1-6.2,13-12.9,13c-7.3,0-12.9-5.7-12.9-12.7c0-7.2,5.8-12.5,13-12.5c5.8,0,10.8,3.9,12.1,8.6
				h-6.9c-0.9-1.7-2.7-3.1-5.3-3.1c-3,0-6.6,2.3-6.6,7c0,5.1,3.6,7.3,6.6,7.3c3.1,0,5.1-1.5,5.8-3.9h-7.2v-4.9H627
				C627,246.9,627,247.3,627,247.8z"/>
			<path class="st1" d="M631.2,260.3h-6.6l9.7-24.2h4.9l9.6,24.2H642l-1.2-3.5h-8.4L631.2,260.3z M639.2,251.9l-2.5-8.3h-0.1
				l-2.5,8.3H639.2z"/>
		</g>
		<path class="st1" d="M451.3,250.2v-4.9h10v4.9H451.3z"/>
	</g>
	<g>
		<path class="st0" d="M155.3,213.6v22.8h15.1v-22.8h15.5v60.7h-15.5V250h-15.1v24.3h-15.5v-60.7H155.3z"/>
		<path class="st0" d="M206.8,213.6c10.2,0,15,1,19.4,5.9c2.7,2.8,3.6,6.5,3.6,10c0,4.7-2.1,9.4-7.1,12.2c9.8,3.4,10,11.6,10,14.1
			c0,4.8-1.9,10.2-5.6,13.2c-5.6,4.7-9.6,5.2-19.8,5.2h-17.7v-60.7H206.8z M208.4,236.7c2.1,0,6.6,0,6.6-4.8c0-4.6-4.2-4.6-6.6-4.6
			h-4v9.4H208.4z M210.2,260.7c2,0,7.7,0,7.7-5.8c0-5.2-5.2-5.2-7.7-5.2h-5.8v11.1H210.2z"/>
		<path class="st0" d="M250.3,213.6v47.1h22v13.6h-37.5v-60.7H250.3z"/>
	</g>
	<path class="st2" d="M337,26.1h269.5c7.1,0,12.8,5.7,12.8,12.8v166.8c0,7.1-5.7,12.8-12.8,12.8H337c-7.1,0-12.8-5.7-12.8-12.8V38.9
		C324.2,31.8,329.9,26.1,337,26.1L337,26.1z"/>
	<path class="st3" d="M328.2,121.9v83.4c0,4.9,4,9.2,8.9,9.2l269.6,0c4.9,0,8.9-4.5,8.9-9.4l0-83.2L328.2,121.9L328.2,121.9z"/>
	<polygon class="st2" points="507.7,131.6 528.3,131.6 528.3,186.9 552.8,186.9 552.8,204.4 507.7,204.4 507.7,131.6 	"/>
	<polygon class="st2" points="538.9,131.6 562.7,131.6 575.1,153.2 587.2,131.6 610.9,131.6 584.8,170.4 584.8,204.4 565.3,204.4 
		565.3,170.4 538.9,131.6 	"/>
	<polygon class="st2" points="344.2,131.6 362.1,131.6 381.4,159.2 400.3,131.6 418.4,131.6 418.4,204.4 400.3,204.4 400.3,158 
		383,181.1 379.8,181.1 362.1,158 362.1,204.4 344.2,204.4 344.2,131.6 	"/>
	<path class="st2" d="M422.6,168c0-21.4,18.1-38.8,40.4-38.8s40.4,17.4,40.4,38.8c0,21.4-18.1,38.8-40.4,38.8S422.6,189.5,422.6,168
		L422.6,168z"/>
	<path class="st3" d="M443.9,168c0-11.7,8.6-21.1,19.1-21.1c10.6,0,19.1,9.5,19.1,21.1c0,11.7-8.6,21.1-19.1,21.1
		C452.5,189.2,443.9,179.7,443.9,168L443.9,168z"/>
	<path class="st4" d="M337.4,29.5c-5.1,0-9.3,4.1-9.3,9.3v83.2l287.4,0l0-83.2c0-5.1-4.2-9.3-9.3-9.3L337.4,29.5L337.4,29.5z"/>
	<polygon class="st2" points="392.2,39.5 412.7,39.5 412.7,112.3 392.2,112.3 392.2,39.5 	"/>
	<polygon class="st2" points="579,39.5 599.7,39.5 599.7,112.3 579,112.3 579,39.5 	"/>
	<polygon class="st2" points="344.2,39.5 362.8,39.5 362.8,95 387.1,95 387.1,112.3 344.2,112.3 344.2,39.5 	"/>
	<path class="st2" d="M504.8,39.5h20.3v45.9c0,6.9,5.9,12.5,13.3,12.5c7.3,0,13.3-5.6,13.3-12.5V39.5h20.1l0.1,52.5
		c0,0-0.1,22.5-33.5,22.5c-33.4,0-33.6-22.5-33.6-22.5V39.5L504.8,39.5z"/>
	<path class="st2" d="M485.2,119.6l-8.2-9c-5.4,2.6-11.6,4.1-18.1,4.1c-22.3,0-40.4-17.4-40.4-38.8c0-21.4,18.1-38.8,40.4-38.8
		c22.3,0,40.4,17.4,40.4,38.8c0,9.7-3.7,18.6-9.8,25.4l10.4,11L485.2,119.6L485.2,119.6z"/>
	<path class="st4" d="M469.2,80.1l6.1,6.2c1.6-3.1,2.6-6.7,2.6-10.5c0-11.7-8.6-21.1-19.1-21.1c-10.6,0-19.1,9.5-19.1,21.1
		c0,11.7,8.6,21.1,19.1,21.1c1.8,0,3.6-0.3,5.2-0.9l-8.3-9.1L469.2,80.1L469.2,80.1z"/>
</g>
</svg>
